# xmcd
#
# Track frame offsets: 
#        180
#        26255
#        60732
#        77559
#        103258
#        119721
#        142176
#        164020
#        179558
#        201906
#        224318
#        238393
#        254203
#        269302
#        280383
#
# Disc length: 3999 seconds
#
# Revision: 0
# Processed by: cddbd v1.5.2PL0 Copyright (c) Steve Scherf et al.
# Submitted via: ExactAudioCopy v0.99pb4
#
DISCID=fa0f9d0f
DTITLE=Various Artist - Blues für Rumänien
DYEAR=1993
DGENRE=Blues
TTITLE0=Bernie's Blues Band - Stormy Monday
TTITLE1=Bernie's Blues Band - Litte Red Rooster
TTITLE2=Bernie's Blues Band - Hoochie Coochie Man
TTITLE3=Bernie's Blues Band - The Sky Is Crying
TTITLE4=Bløde Hunde Blues Band - Walking Blues
TTITLE5=Bløde Hunde Blues Band - Treat Her Right
TTITLE6=Bløde Hunde Blues Band - Shake Your Moneymaker
TTITLE7=Bløde Hunde Blues Band - Tore Down
TTITLE8=Bluesick - Seasaw
TTITLE9=Bluesick - The Bourgeois Blues
TTITLE10=Bluesick - Hallelujah, I Love Him So
TTITLE11=Bloomdido - Halleluja I Love Her So
TTITLE12=Bloomdido - Sax, Gags and Rock'n Roll
TTITLE13=Bloomdido - I Feel Good
TTITLE14=Bloomdido - Can't You See
EXTD=
EXTT0=
EXTT1=
EXTT2=
EXTT3=
EXTT4=
EXTT5=
EXTT6=
EXTT7=
EXTT8=
EXTT9=
EXTT10=
EXTT11=
EXTT12=
EXTT13=
EXTT14=
PLAYORDER=
